<COLLADA xmlns="http://www.collada.org/2005/11/COLLADASchema" version="1.4.1">
  <asset>
    <contributor/>
    <created>2025-03-05T10:00:29.544024</created>
    <modified>2025-03-05T10:00:29.544026</modified>
    <unit name="meter" meter="1.0"/>
    <up_axis>Z_UP</up_axis>
  </asset>
  <library_effects>
    <effect id="effect_Body004_shape" name="effect_Body004_shape">
      <profile_COMMON>
        <technique sid="common">
          <phong>
            <emission>
              <color>0.0 0.0 0.0 1.0</color>
            </emission>
            <ambient>
              <color>0.0 0.0 0.0 1.0</color>
            </ambient>
            <diffuse>
              <color>0.67843097448349 0.7098039984703064 0.7411760091781616 1.0</color>
            </diffuse>
            <specular>
              <color>1 1 1 1.0</color>
            </specular>
            <shininess>
              <float>0.0</float>
            </shininess>
            <reflective>
              <color>0.0 0.0 0.0 1.0</color>
            </reflective>
            <reflectivity>
              <float>0.0</float>
            </reflectivity>
            <transparent>
              <color>0.0 0.0 0.0 1.0</color>
            </transparent>
            <transparency>
              <float>1.0</float>
            </transparency>
          </phong>
        </technique>
        <extra>
          <technique profile="GOOGLEEARTH">
            <double_sided>0</double_sided>
          </technique>
        </extra>
      </profile_COMMON>
    </effect>
  </library_effects>
  <library_geometries>
    <geometry id="geometry0" name="Body004_shape">
      <mesh>
        <source id="cubeverts-array0">
          <float_array count="756" id="cubeverts-array0-array">-4.143187e-18 0.01492546 0.001493518 0.01 0.01470259 0.002972192 -5.977695e-18 0.01409539 0.005130302 0.01 0.01409539 0.005130302 -6.303502e-18 0.01382214 0.005826522 0.01 0.01351453 0.006508256 0.01 0.01239358 0.0084498 -7.44251e-18 0.01239358 0.0084498 -7.682666e-18 0.01195699 0.009057066 -7.903723e-18 0.01149067 0.009641814 0.01 0.01099578 0.01020259 0.01 0.01047355 0.010738 -8.286384e-18 0.01047355 0.010738 -8.447039e-18 0.009925287 0.01124672 0.01 0.009925287 0.01124672 -8.586693e-18 0.009352347 0.01172747 -8.704999e-18 0.008756155 0.01217907 -8.801663e-18 0.008138194 0.01260039 -8.876445e-18 0.0075 0.01299038 0.01 0.00684316 0.01334808 -8.959672e-18 0.006169307 0.01367259 0.01 0.006169307 0.01367259 0.01 0.005480115 0.01396311 0.01 0.0047773 0.01421891 -8.917537e-18 0.004062607 0.01443936 -8.859049e-18 0.003337814 0.01462392 -8.778537e-18 0.002604723 0.01477212 0.01 0.001865156 0.01488359 -8.676199e-18 0.001865156 0.01488359 -8.552291e-18 0.001120951 0.01495806 0.01 0.001120951 0.01495806 -8.40712e-18 0.0003739604 0.01499534 0.01 0.0003739604 0.01499534 -8.241049e-18 -0.0003739604 0.01499534 0.01 -0.0003739604 0.01499534 0.01 -0.001120951 0.01495806 -7.847903e-18 -0.001865156 0.01488359 -7.113377e-18 -0.004062607 0.01443936 0.01 -0.004062607 0.01443936 -6.832307e-18 -0.0047773 0.01421891 0.01 -0.005480115 0.01396311 -6.21995e-18 -0.006169307 0.01367259 -5.890185e-18 -0.00684316 0.01334808 0.01 -0.00684316 0.01334808 0.01 -0.0075 0.01299038 -4.039326e-18 -0.009925287 0.01124672 0.01 -0.01047355 0.010738 0.01 -0.01099578 0.01020259 -2.800841e-18 -0.01149067 0.009641814 -2.372697e-18 -0.01195699 0.009057066 0.01 -0.01239358 0.0084498 -1.938654e-18 -0.01239358 0.0084498 0.01 -0.01317332 0.00717381 0.01 -0.01351453 0.006508256 0.01 -0.01382214 0.005826522 -1.652371e-19 -0.01382214 0.005826522 2.819154e-19 -0.01409539 0.005130302 7.283669e-19 -0.01433359 0.004421328 0.01 -0.01433359 0.004421328 0.01 -0.01453616 0.003701361 1.614732e-18 -0.01470259 0.002972192 0.01 -0.01470259 0.002972192 0.01 -0.01492546 0.001493518 0.01 -0.01498135 0.0007476883 0.01 -0.01498135 -0.0007476883 0.01 -0.01492546 -0.001493518 4.534494e-18 -0.01483246 -0.002235634 5.977695e-18 -0.01409539 -0.005130302 6.613637e-18 -0.01351453 -0.006508256 0.01 -0.01351453 -0.006508256 0.01 -0.01317332 -0.00717381 6.90733e-18 -0.01317332 -0.00717381 7.18385e-18 -0.01279936 -0.007821528 0.01 -0.01279936 -0.007821528 7.44251e-18 -0.01239358 -0.0084498 0.01 -0.01239358 -0.0084498 0.01 -0.01195699 -0.009057066 0.01 -0.01149067 -0.009641814 7.903723e-18 -0.01149067 -0.009641814 0.01 -0.01099578 -0.01020259 8.286384e-18 -0.01047355 -0.010738 0.01 -0.01047355 -0.010738 0.01 -0.009352347 -0.01172747 0.01 -0.008756155 -0.01217907 8.801663e-18 -0.008138194 -0.01260039 0.01 -0.008138194 -0.01260039 8.876445e-18 -0.0075 -0.01299038 8.929158e-18 -0.00684316 -0.01334808 8.959672e-18 -0.006169307 -0.01367259 8.967911e-18 -0.005480115 -0.01396311 0.01 -0.005480115 -0.01396311 0.01 -0.0047773 -0.01421891 8.859049e-18 -0.003337814 -0.01462392 0.01 -0.001120951 -0.01495806 8.40712e-18 -0.0003739604 -0.01499534 8.241049e-18 0.0003739604 -0.01499534 0.01 0.0003739604 -0.01499534 7.847903e-18 0.001865156 -0.01488359 0.01 0.002604723 -0.01477212 7.376762e-18 0.003337814 -0.01462392 0.01 0.003337814 -0.01462392 7.113377e-18 0.004062607 -0.01443936 0.01 0.004062607 -0.01443936 0.01 0.0047773 -0.01421891 6.21995e-18 0.006169307 -0.01367259 0.01 0.006169307 -0.01367259 5.890185e-18 0.00684316 -0.01334808 0.01 0.00684316 -0.01334808 0.01 0.0075 -0.01299038 5.545775e-18 0.0075 -0.01299038 0.01 0.009352347 -0.01172747 3.635193e-18 0.01047355 -0.010738 3.222022e-18 0.01099578 -0.01020259 0.01 0.01149067 -0.009641814 2.372697e-18 0.01195699 -0.009057066 0.01 0.01195699 -0.009057066 1.938654e-18 0.01239358 -0.0084498 0.01 0.01279936 -0.007821528 0.01 0.01317332 -0.00717381 6.119787e-19 0.01351453 -0.006508256 0.01 0.01382214 -0.005826522 0.01 0.01470259 -0.002972192 -2.485049e-18 0.01492546 -0.001493518 0.01 0.01492546 -0.001493518 2.390314e-18 0.01149067 -0.009641814 5.576525e-18 0.008756155 -0.01217907 6.178385e-18 0.008138194 -0.01260039 4.9608e-18 0.009352347 -0.01172747 4.332743e-18 0.009925287 -0.01124672 -2.749608e-19 0.01317332 -0.00717381 3.944893e-19 0.01279936 -0.007821528 -2.929332e-18 0.01433359 -0.004421328 -1.610147e-18 0.01382214 -0.005826522 -2.272565e-18 0.01409539 -0.005130302 -3.578816e-18 0.01453616 -0.003701361 -4.8495e-18 0.01483246 -0.002235634 -4.219403e-18 0.01470259 -0.002972192 1.032351e-17 0.002604723 -0.01477212 1.112694e-17 0.001120951 -0.01495806 -6.071987e-18 0.01498135 -0.0007476883 8.928766e-18 0.0047773 -0.01421891 8.417853e-18 0.005480115 -0.01396311 -7.234128e-18 0.01498135 0.0007476883 -3.330669e-18 0.015 -8.326673e-18 1.263697e-17 -0.002604723 -0.01477212 1.239517e-17 -0.001865156 -0.01488359 1.212255e-17 -0.001120951 -0.01495806 -9.331886e-18 0.01453616 0.003701361 -8.324373e-18 0.01483246 0.002235634 -8.839117e-18 0.01470259 0.002972192 1.30258e-17 -0.004062607 -0.01443936 -9.801455e-18 0.01433359 0.004421328 1.317186e-17 -0.0047773 -0.01421891 -1.14253e-17 0.01317332 0.00717381 -1.105959e-17 0.01351453 0.006508256 -1.176261e-17 0.01279936 0.007821528 1.281211e-17 -0.01099578 -0.01020259 1.314817e-17 -0.009925287 -0.01124672 1.326735e-17 -0.009352347 -0.01172747 1.335355e-17 -0.008756155 -0.01217907 -1.281211e-17 0.01099578 0.01020259 1.234872e-17 -0.01195699 -0.009057066 1.066638e-17 -0.01382214 -0.005826522 9.801455e-18 -0.01433359 -0.004421328 -1.341251e-17 0.00684316 0.01334808 -1.328517e-17 0.005480115 0.01396311 -1.317186e-17 0.0047773 0.01421891 9.331886e-18 -0.01453616 -0.003701361 8.839117e-18 -0.01470259 -0.002972192 7.788933e-18 -0.01492546 -0.001493518 7.234128e-18 -0.01498135 -0.0007476883 6.661338e-18 -0.015 -3.979639e-17 -1.112694e-17 -0.001120951 0.01495806 4.8495e-18 -0.01483246 0.002235634 5.46754e-18 -0.01492546 0.001493518 6.071987e-18 -0.01498135 0.0007476883 -1.032351e-17 -0.002604723 0.01477212 -9.882781e-18 -0.003337814 0.01462392 3.578816e-18 -0.01453616 0.003701361 9.437273e-19 -0.01351453 0.006508256 -8.417853e-18 -0.005480115 0.01396311 2.749608e-19 -0.01317332 0.00717381 -6.764885e-18 -0.0075 0.01299038 -6.178385e-18 -0.008138194 0.01260039 -3.944893e-19 -0.01279936 0.007821528 -5.576525e-18 -0.008756155 0.01217907 -4.9608e-18 -0.009352347 0.01172747 -3.0459e-18 -0.01099578 0.01020259 -3.693913e-18 -0.01047355 0.010738 0.01 0.01239358 -0.0084498 0.01 0.008138194 -0.01260039 0.01 0.008756155 -0.01217907 0.01 0.009925287 -0.01124672 0.01 0.01047355 -0.010738 0.01 0.01099578 -0.01020259 0.01 0.01433359 -0.004421328 0.01 0.01351453 -0.006508256 0.01 0.01409539 -0.005130302 0.01 0.01483246 -0.002235634 0.01 0.01453616 -0.003701361 0.01 0.001865156 -0.01488359 0.01 0.001120951 -0.01495806 0.01 0.01498135 -0.0007476883 0.01 0.005480115 -0.01396311 0.01 0.01498135 0.0007476883 0.01 0.015 -1.24345e-17 0.01 0.01492546 0.001493518 0.01 -0.003337814 -0.01462392 0.01 -0.002604723 -0.01477212 0.01 -0.001865156 -0.01488359 0.01 -0.0003739604 -0.01499534 0.01 0.01453616 0.003701361 0.01 0.01483246 0.002235634 0.01 -0.004062607 -0.01443936 0.01 0.01433359 0.004421328 0.01 0.01317332 0.00717381 0.01 0.01382214 0.005826522 0.01 -0.0075 -0.01299038 0.01 -0.00684316 -0.01334808 0.01 -0.006169307 -0.01367259 0.01 0.01149067 0.009641814 0.01 0.01279936 0.007821528 0.01 0.01195699 0.009057066 0.01 -0.009925287 -0.01124672 0.01 0.008756155 0.01217907 0.01 0.009352347 0.01172747 0.01 0.0075 0.01299038 0.01 0.008138194 0.01260039 0.01 -0.01409539 -0.005130302 0.01 -0.01382214 -0.005826522 0.01 -0.01433359 -0.004421328 0.01 0.004062607 0.01443936 0.01 -0.01470259 -0.002972192 0.01 -0.01453616 -0.003701361 0.01 0.002604723 0.01477212 0.01 0.003337814 0.01462392 0.01 -0.01483246 -0.002235634 0.01 -0.015 -4.973799e-17 0.01 -0.001865156 0.01488359 0.01 -0.01483246 0.002235634 0.01 -0.002604723 0.01477212 0.01 -0.003337814 0.01462392 0.01 -0.0047773 0.01421891 0.01 -0.01409539 0.005130302 0.01 -0.006169307 0.01367259 0.01 -0.008138194 0.01260039 0.01 -0.01279936 0.007821528 0.01 -0.008756155 0.01217907 0.01 -0.01195699 0.009057066 0.01 -0.009352347 0.01172747 0.01 -0.01149067 0.009641814 0.01 -0.009925287 0.01124672</float_array>
          <technique_common>
            <accessor count="252" source="#cubeverts-array0-array" stride="3">
              <param type="float" name="X"/>
              <param type="float" name="Y"/>
              <param type="float" name="Z"/>
            </accessor>
          </technique_common>
        </source>
        <source id="cubenormals-array0">
          <float_array count="1500" id="cubenormals-array0-array">1.024112e-17 0.9996892 0.02493077 0 0.9996892 0.02493077 0 0.9972038 0.07472982 0 0.9922392 0.124344 -0 0.9972038 0.07472982 0 0.9922392 0.124344 0 0.9848077 0.1736484 0 0.9749281 0.2225204 -0 0.9848077 0.1736484 0 0.9749281 0.2225204 0 0.9626243 0.2708403 -0 0.9626243 0.2708403 0 0.9479272 0.318487 0 0.9308739 0.3653406 -0 0.9479272 0.318487 0 0.9308739 0.3653406 0 0.9115056 0.4112875 -0 0.9115056 0.4112875 0 0.8898718 0.4562107 -0 0.8898718 0.4562107 -0 0.8660254 0.5000001 0 0.8660254 0.5000001 0 0.8400257 0.5425466 0 0.8400257 0.5425466 -0 0.8119381 0.5837436 0 0.8119381 0.5837436 -0 0.7818316 0.6234896 0 0.7818316 0.6234896 0 0.7497813 0.6616858 0 0.7158672 0.6982364 -0 0.7497813 0.6616858 0 0.7158672 0.6982364 0 0.6801725 0.7330521 -0 0.6801725 0.7330521 0 0.6427878 0.7660443 0 0.6038044 0.7971325 -0 0.6427878 0.7660443 0 0.6038044 0.7971325 0 0.5633196 0.8262392 -0 0.5633196 0.8262392 0 0.5214356 0.8532906 -0 0.5214356 0.8532906 0 0.4782534 0.8782219 -0 0.4782534 0.8782219 0 0.4338838 0.9009688 -0 0.4338838 0.9009688 0 0.3884351 0.9214761 -0 0.3884351 0.9214761 0 0.3420203 0.9396926 -0 0.3420203 0.9396926 0 0.2947547 0.955573 -0 0.2947547 0.955573 0 0.2467576 0.9690773 -0 0.2467576 0.9690773 0 0.1981468 0.9801723 0 0.1490414 0.9888309 -0 0.1981468 0.9801723 0 0.1490414 0.9888309 0 0.09956878 0.9950307 -0 0.09956878 0.9950307 0 0.04984497 0.9987569 -0 0.04984497 0.9987569 0 0 1 -0 0 1 0 -0.04984497 0.9987569 0 -0.04984497 0.9987569 0 -0.09956878 0.9950307 0 -0.09956878 0.9950307 0 -0.1490414 0.9888309 0 -0.1490414 0.9888309 0 -0.1981468 0.9801723 0 -0.1981468 0.9801723 0 -0.2467576 0.9690773 0 -0.2947547 0.955573 0 -0.2467576 0.9690773 0 -0.2947547 0.955573 0 -0.3420203 0.9396926 0 -0.3420203 0.9396926 0 -0.3884351 0.9214761 0 -0.3884351 0.9214761 0 -0.4338838 0.9009688 0 -0.4338838 0.9009688 0 -0.4782534 0.8782219 0 -0.4782534 0.8782219 0 -0.5214356 0.8532906 0 -0.5214356 0.8532906 0 -0.5633196 0.8262392 0 -0.5633196 0.8262392 0 -0.6038044 0.7971325 0 -0.6038044 0.7971325 0 -0.6427878 0.7660443 0 -0.6427878 0.7660443 0 -0.6801725 0.7330521 0 -0.6801725 0.7330521 0 -0.7158672 0.6982364 0 -0.7158672 0.6982364 0 -0.7497813 0.6616858 0 -0.7497813 0.6616858 0 -0.7818316 0.6234896 0 -0.8119381 0.5837436 0 -0.7818316 0.6234896 0 -0.8119381 0.5837436 0 -0.8400257 0.5425466 0 -0.8660254 0.5000001 0 -0.8400257 0.5425466 0 -0.8660254 0.5000001 0 -0.8898718 0.4562107 0 -0.9115056 0.4112875 0 -0.8898718 0.4562107 0 -0.9115056 0.4112875 0 -0.9308739 0.3653406 0 -0.9308739 0.3653406 0 -0.9479272 0.318487 0 -0.9626243 0.2708403 0 -0.9479272 0.318487 0 -0.9626243 0.2708403 0 -0.9749281 0.2225204 0 -0.9749281 0.2225204 0 -0.9848077 0.1736484 0 -0.9848077 0.1736484 0 -0.9922392 0.124344 0 -0.9922392 0.124344 0 -0.9972038 0.07472982 0 -0.9972038 0.07472982 0 -0.9996892 0.02493077 0 -0.9996892 0.02493077 -2.478517e-17 -0.9996892 -0.02493077 0 -0.9996892 -0.02493077 0 -0.9972038 -0.07472982 0 -0.9972038 -0.07472982 -0 -0.9922392 -0.124344 0 -0.9922392 -0.124344 -0 -0.9848077 -0.1736484 0 -0.9848077 -0.1736484 -0 -0.9749281 -0.2225204 0 -0.9749281 -0.2225204 0 -0.9626243 -0.2708403 0 -0.9626243 -0.2708403 -0 -0.9479272 -0.318487 0 -0.9479272 -0.318487 0 -0.9308739 -0.3653406 0 -0.9308739 -0.3653406 0 -0.9115056 -0.4112875 0 -0.9115056 -0.4112875 -0 -0.8898718 -0.4562107 0 -0.8898718 -0.4562107 0 -0.8660254 -0.5000001 0 -0.8660254 -0.5000001 0 -0.8400257 -0.5425466 0 -0.8400257 -0.5425466 0 -0.8119381 -0.5837436 0 -0.8119381 -0.5837436 -0 -0.7818316 -0.6234896 0 -0.7818316 -0.6234896 0 -0.7497813 -0.6616858 0 -0.7497813 -0.6616858 0 -0.7158672 -0.6982364 0 -0.7158672 -0.6982364 -0 -0.6801725 -0.7330521 0 -0.6801725 -0.7330521 0 -0.6427878 -0.7660443 0 -0.6427878 -0.7660443 0 -0.6038044 -0.7971325 0 -0.6038044 -0.7971325 0 -0.5633196 -0.8262392 0 -0.5633196 -0.8262392 -0 -0.5214356 -0.8532906 0 -0.5214356 -0.8532906 0 -0.4782534 -0.8782219 0 -0.4782534 -0.8782219 0 -0.4338838 -0.9009688 0 -0.4338838 -0.9009688 0 -0.3884351 -0.9214761 0 -0.3884351 -0.9214761 0 -0.3420203 -0.9396926 0 -0.3420203 -0.9396926 0 -0.2947547 -0.955573 0 -0.2947547 -0.955573 0 -0.2467576 -0.9690773 0 -0.2467576 -0.9690773 0 -0.1981468 -0.9801723 0 -0.1981468 -0.9801723 -0 -0.1490414 -0.9888309 0 -0.1490414 -0.9888309 0 -0.09956878 -0.9950307 0 -0.09956878 -0.9950307 0 -0.04984497 -0.9987569 0 -0.04984497 -0.9987569 0 0 -1 0 0 -1 0 0.04984497 -0.9987569 0 0.04984497 -0.9987569 0 0.09956878 -0.9950307 0 0.09956878 -0.9950307 0 0.1490414 -0.9888309 0 0.1490414 -0.9888309 0 0.1981468 -0.9801723 0 0.1981468 -0.9801723 0 0.2467576 -0.9690773 0 0.2467576 -0.9690773 0 0.2947547 -0.955573 0 0.2947547 -0.955573 0 0.3420203 -0.9396926 0 0.3420203 -0.9396926 0 0.3884351 -0.9214761 0 0.3884351 -0.9214761 0 0.4338838 -0.9009688 0 0.4782534 -0.8782219 0 0.4338838 -0.9009688 0 0.4782534 -0.8782219 0 0.5214356 -0.8532906 0 0.5214356 -0.8532906 0 0.5633196 -0.8262392 0 0.5633196 -0.8262392 0 0.6038044 -0.7971325 0 0.6038044 -0.7971325 0 0.6427878 -0.7660443 0 0.6427878 -0.7660443 0 0.6801725 -0.7330521 0 0.6801725 -0.7330521 0 0.7158672 -0.6982364 0 0.7158672 -0.6982364 0 0.7497813 -0.6616858 0 0.7497813 -0.6616858 0 0.7818316 -0.6234896 0 0.7818316 -0.6234896 0 0.8119381 -0.5837436 0 0.8119381 -0.5837436 0 0.8400257 -0.5425466 0 0.8400257 -0.5425466 0 0.8660254 -0.5000001 0 0.8660254 -0.5000001 0 0.8898718 -0.4562107 0 0.8898718 -0.4562107 0 0.9115056 -0.4112875 0 0.9115056 -0.4112875 0 0.9308739 -0.3653406 0 0.9479272 -0.318487 0 0.9308739 -0.3653406 0 0.9479272 -0.318487 0 0.9626243 -0.2708403 0 0.9626243 -0.2708403 0 0.9749281 -0.2225204 0 0.9749281 -0.2225204 0 0.9848077 -0.1736484 0 0.9848077 -0.1736484 0 0.9922392 -0.124344 0 0.9922392 -0.124344 0 0.9972038 -0.07472982 0 0.9996892 -0.02493077 0 0.9972038 -0.07472982 0 0.9996892 -0.02493077 -1 8.718841e-15 -6.983169e-15 -1 -4.441044e-16 -7.771357e-16 -1 -4.440807e-16 -7.771674e-16 -1 -8.559276e-16 -4.487254e-16 -1 1.493239e-15 -2.22815e-15 -1 -2.008832e-15 2.896677e-16 -1 -2.078621e-14 1.096738e-14 -1 9.26281e-15 -7.395208e-15 -1 -1.293222e-14 2.278473e-14 -1 -4.069004e-15 7.433179e-15 -1 2.520436e-14 -1.158889e-14 -1 -2.659936e-14 8.742583e-15 -1 -4.440892e-16 -7.771552e-16 -1 -4.440894e-16 -7.771565e-16 -1 -4.440921e-16 -7.771563e-16 -1 2.493761e-14 -1.432427e-13 -1 -9.767798e-15 5.358158e-14 -1 -3.618457e-15 1.278343e-14 -1 1.587111e-13 -1.670304e-14 -1 -3.025102e-15 1.804196e-14 -1 9.860519e-16 -4.706434e-15 -1 3.005211e-15 -1.469464e-14 -1 2.613158e-16 -1.708421e-15 -1 -5.85147e-16 1.035744e-15 -1 5.927122e-15 -4.135216e-14 -1 1.781801e-13 -7.771561e-16 -1 -3.843992e-15 1.794274e-16 -1 -1.345724e-14 5.250066e-16 -1 -6.56725e-14 -7.771561e-16 -1 -5.960725e-15 3.380546e-16 -1 -1.638809e-14 -1.065593e-13 -1 -3.997716e-15 -3.628995e-14 -1 -8.16472e-15 -6.393617e-14 -1 -2.220447e-16 -5.551129e-16 -1 -6.437937e-14 -1.370194e-14 -1 -4.441015e-16 -7.771582e-16 -1 3.447497e-15 3.611644e-14 -1 -1.616606e-14 -5.200633e-15 -1 -1.676597e-15 -4.772855e-15 -1 -8.051422e-16 1.00887e-15 -1 -4.440892e-16 -7.77156e-16 -1 -7.771719e-16 -1.274541e-16 -1 -4.031603e-16 -5.964502e-16 -1 -5.474153e-14 -1.299883e-14 -1 3.741228e-14 1.421525e-14 -1 -1.045846e-13 -5.416686e-14 -1 1.174923e-15 -2.135668e-15 -1 4.261576e-15 -4.725678e-15 -1 -2.220307e-16 -5.550867e-16 -1 -2.220411e-16 -5.551048e-16 -1 -1.864888e-14 -1.12877e-14 -1 6.50805e-14 4.890963e-14 -1 -2.220152e-16 -5.550887e-16 -1 2.823539e-15 5.037518e-15 -1 1.759231e-13 1.800431e-13 -1 -4.440875e-16 -7.77154e-16 -1 -4.440844e-16 -7.771505e-16 -1 -3.320753e-14 -3.790263e-14 -1 -4.321403e-14 -4.688944e-14 -1 4.040669e-14 4.786433e-14 -1 -2.220519e-16 -5.551202e-16 -1 -2.220441e-16 -5.551108e-16 -1 -8.54558e-16 -2.106632e-16 -1 4.401249e-15 4.427614e-15 -1 -2.220446e-16 -5.551116e-16 -1 -2.220446e-16 -5.551115e-16 -1 -5.484258e-15 -6.517925e-15 -1 1.049164e-13 6.735058e-14 -1 -1.018445e-13 -7.361668e-14 -1 5.109852e-14 3.634187e-14 -1 -2.220643e-16 -5.551421e-16 -1 -2.220361e-16 -5.551067e-16 -1 -2.220446e-16 -5.551116e-16 -1 -2.158273e-13 -9.144034e-14 -1 -2.220446e-16 -5.551115e-16 -1 3.756514e-15 -5.78324e-15 -1 -3.073949e-16 -6.872595e-16 -1 -3.768717e-15 4.127146e-15 -1 2.036907e-14 5.601849e-14 -1 -3.982908e-14 -1.093746e-13 -1 -3.813353e-14 -1.04328e-13 -1 -1.450745e-15 4.2253e-16 -1 -4.440767e-16 -7.771526e-16 -1 -2.220428e-16 -5.551047e-16 -1 -4.440897e-16 -7.771561e-16 -1 2.005385e-13 2.951614e-14 -1 -2.220448e-16 -5.551137e-16 -1 -2.220454e-16 -5.55119e-16 -1 -2.22043e-16 -5.550877e-16 -1 -4.440892e-16 -7.771561e-16 -1 1.209127e-14 -1.648648e-13 -1 -4.440886e-16 -7.771562e-16 -1 -4.44084e-16 -7.771562e-16 -1 -4.440879e-16 -7.771562e-16 -1 -3.834372e-15 4.764805e-14 -1 1.837241e-16 2.136987e-15 -1 2.437788e-15 -1.503293e-14 -1 -2.220447e-16 6.192037e-15 -1 1.364775e-13 -2.845643e-14 -1 -1.675342e-15 -1.026059e-15 -1 -5.39718e-15 -6.536334e-16 -1 -3.904204e-14 7.02558e-15 -1 3.441992e-17 -1.026059e-15 -1 -2.003577e-14 6.367951e-14 -1 -2.220438e-16 -5.55112e-16 -1 2.593324e-14 -1.007486e-14 -1 1.940353e-14 -4.711246e-14 -1 -2.214399e-14 4.496625e-14 -1 -9.218243e-15 3.721091e-15 -1 -5.588251e-15 1.232996e-14 -1 -6.581062e-15 1.453025e-14 -1 -4.4409e-16 -7.771527e-16 -1 -2.078623e-14 1.096739e-14 -1 -4.440881e-16 -7.771591e-16 -1 9.457069e-15 -7.513917e-15 -1 -4.440901e-16 -7.77152e-16 -1 4.443852e-15 -4.276038e-15 -1 8.323204e-17 -1.892616e-15 -1 2.457261e-16 -2.209571e-15 -1 -3.132681e-15 1.15581e-15 -1 4.03192e-15 -3.995188e-15 -1 -2.144574e-16 -5.690439e-16 -1 -2.569851e-16 -4.020259e-16 -1 -1.400588e-15 1.557854e-16 1 0 0 1 0 0 1 0 0 1 0 0 1 0 0 1 0 0 1 0 0 1 0 0 1 0 0 1 0 0 1 0 0 1 0 0 1 0 0 1 0 0 1 0 0 1 0 0 1 0 0 1 0 0 1 0 0 1 0 0 1 0 0 1 0 0 1 0 0 1 0 0 1 0 0 1 0 0 1 0 0 1 0 0 1 0 0 1 0 0 1 0 0 1 0 0 1 0 0 1 0 0 1 0 0 1 0 0 1 0 0 1 0 0 1 0 0 1 -0 0 1 0 0 1 0 0 1 0 0 1 0 0 1 0 0 1 0 0 1 0 0 1 0 0 1 0 0 1 0 0 1 0 0 1 0 0 1 0 0 1 0 0 1 0 0 1 0 0 1 0 0 1 0 0 1 0 0 1 0 0 1 0 0 1 0 0 1 0 0 1 0 0 1 0 0 1 -0 0 1 0 0 1 0 0 1 0 0 1 0 0 1 0 0 1 0 0 1 -0 0 1 0 0 1 0 0 1 0 0 1 0 0 1 -0 0 1 0 0 1 0 0 1 0 0 1 0 0 1 0 0 1 0 0 1 0 0 1 0 0 1 0 0 1 0 0 1 0 0 1 0 0 1 -0 0 1 0 0 1 0 0 1 0 0 1 0 0 1 0 0 1 -0 0 1 0 0 1 0 0 1 0 0 1 0 0 1 0 0 1 -0 0 1 0 0 1 0 0 1 0 0 1 0 0 1 0 0 1 0 0 1 0 0 1 0 0 1 0 0 1 0 0 1 0 0 1 0 0 1 0 0 1 0 0 1 0 0 1 0 0 1 0 0 1 0 0 1 -0 0 1 0 0 1 0 0</float_array>
          <technique_common>
            <accessor count="500" source="#cubenormals-array0-array" stride="3">
              <param type="float" name="X"/>
              <param type="float" name="Y"/>
              <param type="float" name="Z"/>
            </accessor>
          </technique_common>
        </source>
        <vertices id="cubeverts-array0-vertices">
          <input semantic="POSITION" source="#cubeverts-array0"/>
        </vertices>
        <triangles count="500" material="ref_Body004_shape">
          <input offset="0" semantic="VERTEX" source="#cubeverts-array0-vertices"/>
          <input offset="1" semantic="NORMAL" source="#cubenormals-array0"/>
          <p>143 0 142 0 205 0 205 1 142 1 204 1 204 2 0 2 206 2 206 3 0 3 212 3 142 4 0 4 204 4 0 5 148 5 212 5 212 6 149 6 1 6 1 7 149 7 211 7 148 8 149 8 212 8 149 9 147 9 211 9 211 10 151 10 214 10 147 11 151 11 211 11 214 12 2 12 3 12 3 13 2 13 216 13 151 14 2 14 214 14 2 15 4 15 216 15 216 16 154 16 5 16 4 17 154 17 216 17 5 18 153 18 215 18 154 19 153 19 5 19 153 20 155 20 215 20 215 21 155 21 221 21 221 22 155 22 6 22 155 23 7 23 6 23 7 24 8 24 6 24 6 25 8 25 222 25 8 26 9 26 222 26 222 27 9 27 220 27 220 28 160 28 10 28 10 29 160 29 11 29 9 30 160 30 220 30 160 31 12 31 11 31 11 32 13 32 14 32 12 33 13 33 11 33 14 34 15 34 225 34 225 35 15 35 224 35 13 36 15 36 14 36 15 37 16 37 224 37 224 38 17 38 227 38 16 39 17 39 224 39 227 40 18 40 226 40 17 41 18 41 227 41 226 42 164 42 19 42 18 43 164 43 226 43 19 44 20 44 21 44 164 45 20 45 19 45 21 46 165 46 22 46 20 47 165 47 21 47 22 48 166 48 23 48 165 49 166 49 22 49 23 50 24 50 231 50 166 51 24 51 23 51 231 52 25 52 235 52 24 53 25 53 231 53 235 54 26 54 234 54 234 55 26 55 27 55 25 56 26 56 235 56 26 57 28 57 27 57 27 58 29 58 30 58 28 59 29 59 27 59 30 60 31 60 32 60 29 61 31 61 30 61 32 62 33 62 34 62 31 63 33 63 32 63 34 64 172 64 35 64 33 65 172 65 34 65 35 66 36 66 238 66 172 67 36 67 35 67 238 68 176 68 240 68 36 69 176 69 238 69 240 70 177 70 241 70 176 71 177 71 240 71 241 72 37 72 38 72 38 73 37 73 242 73 177 74 37 74 241 74 37 75 39 75 242 75 242 76 39 76 40 76 39 77 180 77 40 77 180 78 41 78 40 78 40 79 41 79 244 79 41 80 42 80 244 80 244 81 42 81 43 81 42 82 182 82 43 82 43 83 182 83 44 83 182 84 183 84 44 84 44 85 183 85 245 85 183 86 185 86 245 86 245 87 185 87 247 87 185 88 186 88 247 88 247 89 186 89 249 89 186 90 45 90 249 90 249 91 45 91 251 91 251 92 45 92 46 92 45 93 188 93 46 93 46 94 187 94 47 94 188 95 187 95 46 95 47 96 48 96 250 96 187 97 48 97 47 97 250 98 49 98 248 98 248 99 49 99 50 99 48 100 49 100 250 100 49 101 51 101 50 101 50 102 184 102 246 102 246 103 184 103 52 103 51 104 184 104 50 104 184 105 181 105 52 105 52 106 179 106 53 106 53 107 179 107 54 107 181 108 179 108 52 108 179 109 55 109 54 109 54 110 56 110 243 110 55 111 56 111 54 111 243 112 57 112 58 112 58 113 57 113 59 113 56 114 57 114 243 114 57 115 178 115 59 115 59 116 60 116 61 116 178 117 60 117 59 117 61 118 173 118 239 118 60 119 173 119 61 119 239 120 174 120 62 120 173 121 174 121 239 121 174 122 175 122 62 122 62 123 175 123 63 123 63 124 175 124 237 124 175 125 171 125 237 125 237 126 171 126 64 126 171 127 170 127 64 127 170 128 169 128 64 128 64 129 169 129 65 129 65 130 169 130 236 130 169 131 66 131 236 131 236 132 66 132 232 132 66 133 168 133 232 133 232 134 168 134 233 134 168 135 167 135 233 135 167 136 163 136 233 136 233 137 163 137 230 137 230 138 163 138 228 138 163 139 67 139 228 139 67 140 162 140 228 140 228 141 162 141 229 141 162 142 68 142 229 142 229 143 68 143 69 143 69 144 68 144 70 144 68 145 71 145 70 145 71 146 72 146 70 146 70 147 72 147 73 147 72 148 74 148 73 148 73 149 74 149 75 149 74 150 161 150 75 150 75 151 161 151 76 151 76 152 161 152 77 152 161 153 78 153 77 153 78 154 156 154 77 154 77 155 156 155 79 155 156 156 80 156 79 156 79 157 80 157 81 157 81 158 80 158 223 158 80 159 157 159 223 159 157 160 158 160 223 160 223 161 158 161 82 161 158 162 159 162 82 162 82 163 159 163 83 163 83 164 84 164 85 164 159 165 84 165 83 165 85 166 84 166 217 166 84 167 86 167 217 167 217 168 87 168 218 168 86 169 87 169 217 169 218 170 88 170 219 170 87 171 88 171 218 171 219 172 89 172 90 172 88 173 89 173 219 173 89 174 152 174 90 174 90 175 152 175 91 175 152 176 150 176 91 176 91 177 150 177 213 177 150 178 92 178 213 178 213 179 92 179 207 179 92 180 144 180 207 180 207 181 144 181 208 181 208 182 144 182 209 182 144 183 145 183 209 183 145 184 146 184 209 184 209 185 146 185 93 185 146 186 94 186 93 186 93 187 94 187 210 187 94 188 95 188 210 188 210 189 95 189 96 189 95 190 138 190 96 190 96 191 138 191 201 191 138 192 97 192 201 192 201 193 97 193 200 193 97 194 137 194 200 194 200 195 137 195 98 195 137 196 99 196 98 196 98 197 99 197 100 197 100 198 101 198 102 198 99 199 101 199 100 199 102 200 140 200 103 200 101 201 140 201 102 201 103 202 141 202 203 202 140 203 141 203 103 203 203 204 104 204 105 204 141 205 104 205 203 205 105 206 106 206 107 206 107 207 106 207 108 207 104 208 106 208 105 208 106 209 109 209 108 209 108 210 126 210 190 210 109 211 126 211 108 211 190 212 125 212 191 212 126 213 125 213 190 213 191 214 127 214 110 214 125 215 127 215 191 215 110 216 128 216 192 216 127 217 128 217 110 217 192 218 111 218 193 218 128 219 111 219 192 219 193 220 112 220 194 220 111 221 112 221 193 221 112 222 124 222 194 222 194 223 124 223 113 223 124 224 114 224 113 224 113 225 114 225 115 225 114 226 116 226 115 226 115 227 116 227 189 227 116 228 130 228 189 228 189 229 130 229 117 229 130 230 129 230 117 230 117 231 129 231 118 231 118 232 119 232 196 232 129 233 119 233 118 233 196 234 132 234 120 234 119 235 132 235 196 235 120 236 133 236 197 236 197 237 133 237 195 237 132 238 133 238 120 238 133 239 131 239 195 239 195 240 134 240 199 240 131 241 134 241 195 241 199 242 136 242 121 242 134 243 136 243 199 243 121 244 135 244 198 244 136 245 135 245 121 245 198 246 122 246 123 246 135 247 122 247 198 247 123 248 139 248 202 248 202 249 139 249 205 249 122 250 139 250 123 250 139 251 143 251 205 251 124 252 116 252 114 252 125 253 126 253 127 253 127 254 126 254 128 254 128 255 129 255 111 255 111 256 129 256 112 256 112 257 129 257 124 257 116 258 129 258 130 258 124 259 129 259 116 259 109 260 106 260 126 260 106 261 104 261 126 261 129 262 131 262 119 262 119 263 131 263 132 263 132 264 131 264 133 264 128 265 131 265 129 265 134 266 135 266 136 266 137 267 97 267 99 267 97 268 138 268 99 268 99 269 138 269 101 269 135 270 139 270 122 270 101 271 95 271 140 271 140 272 95 272 141 272 141 273 95 273 104 273 126 274 95 274 128 274 104 275 95 275 126 275 138 276 95 276 101 276 139 277 142 277 143 277 131 278 0 278 134 278 135 279 0 279 139 279 139 280 0 280 142 280 134 281 0 281 135 281 144 282 92 282 145 282 145 283 92 283 146 283 146 284 92 284 94 284 94 285 92 285 95 285 0 286 147 286 148 286 148 287 147 287 149 287 92 288 150 288 95 288 0 289 151 289 147 289 150 290 152 290 95 290 95 291 152 291 128 291 128 292 152 292 131 292 131 293 152 293 0 293 152 294 2 294 0 294 0 295 2 295 151 295 2 296 153 296 4 296 4 297 153 297 154 297 152 298 153 298 2 298 89 299 153 299 152 299 86 300 84 300 87 300 87 301 84 301 88 301 153 302 9 302 155 302 155 303 9 303 7 303 7 304 9 304 8 304 84 305 156 305 88 305 80 306 156 306 157 306 157 307 156 307 158 307 158 308 156 308 159 308 159 309 156 309 84 309 9 310 16 310 160 310 160 311 16 311 12 311 12 312 16 312 13 312 13 313 16 313 15 313 89 314 16 314 153 314 153 315 16 315 9 315 88 316 16 316 89 316 88 317 72 317 16 317 156 318 72 318 88 318 74 319 72 319 161 319 161 320 72 320 78 320 78 321 72 321 156 321 16 322 18 322 17 322 71 323 68 323 72 323 72 324 67 324 16 324 162 325 67 325 68 325 68 326 67 326 72 326 18 327 163 327 164 327 16 328 163 328 18 328 67 329 163 329 16 329 164 330 24 330 20 330 20 331 24 331 165 331 165 332 24 332 166 332 163 333 24 333 164 333 167 334 168 334 163 334 24 335 26 335 25 335 168 336 169 336 163 336 66 337 169 337 168 337 24 338 31 338 26 338 26 339 31 339 28 339 28 340 31 340 29 340 170 341 171 341 169 341 33 342 36 342 172 342 171 343 173 343 169 343 174 344 173 344 175 344 175 345 173 345 171 345 33 346 176 346 36 346 24 347 177 347 31 347 33 348 177 348 176 348 31 349 177 349 33 349 60 350 178 350 173 350 169 351 57 351 163 351 173 352 57 352 169 352 178 353 57 353 173 353 163 354 57 354 24 354 177 355 39 355 37 355 56 356 55 356 57 356 55 357 179 357 57 357 39 358 42 358 180 358 180 359 42 359 41 359 179 360 181 360 57 360 177 361 182 361 39 361 39 362 182 362 42 362 177 363 183 363 182 363 184 364 51 364 181 364 177 365 185 365 183 365 51 366 49 366 181 366 177 367 186 367 185 367 49 368 48 368 181 368 24 369 45 369 177 369 177 370 45 370 186 370 181 371 187 371 57 371 48 372 187 372 181 372 57 373 188 373 24 373 24 374 188 374 45 374 187 375 188 375 57 375 189 376 113 376 115 376 190 377 191 377 110 377 190 378 110 378 192 378 118 379 192 379 193 379 118 380 193 380 194 380 118 381 194 381 113 381 118 382 189 382 117 382 118 383 113 383 189 383 107 384 108 384 190 384 105 385 107 385 190 385 195 386 118 386 196 386 195 387 196 387 120 387 195 388 120 388 197 388 195 389 192 389 118 389 198 390 199 390 121 390 200 391 98 391 100 391 201 392 200 392 100 392 201 393 100 393 102 393 202 394 198 394 123 394 96 395 102 395 103 395 96 396 103 396 203 396 96 397 203 397 105 397 96 398 190 398 192 398 96 399 105 399 190 399 96 400 201 400 102 400 204 401 202 401 205 401 206 402 195 402 199 402 206 403 198 403 202 403 206 404 202 404 204 404 206 405 199 405 198 405 207 406 208 406 209 406 207 407 209 407 93 407 207 408 93 408 210 408 207 409 210 409 96 409 211 410 206 410 212 410 211 411 212 411 1 411 213 412 207 412 96 412 214 413 206 413 211 413 91 414 213 414 96 414 91 415 96 415 192 415 91 416 192 416 195 416 91 417 195 417 206 417 3 418 91 418 206 418 3 419 206 419 214 419 215 420 3 420 216 420 215 421 216 421 5 421 215 422 91 422 3 422 215 423 90 423 91 423 85 424 217 424 218 424 85 425 218 425 219 425 220 426 215 426 221 426 220 427 221 427 6 427 220 428 6 428 222 428 79 429 85 429 219 429 79 430 81 430 223 430 79 431 223 431 82 431 79 432 82 432 83 432 79 433 83 433 85 433 224 434 220 434 10 434 224 435 10 435 11 435 224 436 11 436 14 436 224 437 14 437 225 437 224 438 90 438 215 438 224 439 215 439 220 439 224 440 219 440 90 440 73 441 219 441 224 441 73 442 79 442 219 442 73 443 75 443 76 443 73 444 76 444 77 444 73 445 77 445 79 445 226 446 224 446 227 446 69 447 70 447 73 447 228 448 73 448 224 448 228 449 229 449 69 449 228 450 69 450 73 450 230 451 226 451 19 451 230 452 224 452 226 452 230 453 228 453 224 453 231 454 19 454 21 454 231 455 21 455 22 455 231 456 22 456 23 456 231 457 230 457 19 457 232 458 233 458 230 458 234 459 231 459 235 459 65 460 232 460 230 460 65 461 236 461 232 461 237 462 64 462 65 462 34 463 231 463 234 463 34 464 234 464 27 464 34 465 27 465 30 465 34 466 30 466 32 466 62 467 63 467 237 467 238 468 34 468 35 468 239 469 237 469 65 469 239 470 62 470 237 470 240 471 34 471 238 471 241 472 231 472 34 472 241 473 34 473 240 473 59 474 61 474 239 474 58 475 65 475 230 475 58 476 239 476 65 476 58 477 59 477 239 477 58 478 230 478 231 478 242 479 241 479 38 479 54 480 243 480 58 480 53 481 54 481 58 481 43 482 242 482 40 482 43 483 40 483 244 483 52 484 53 484 58 484 44 485 241 485 242 485 44 486 242 486 43 486 245 487 241 487 44 487 50 488 246 488 52 488 247 489 241 489 245 489 248 490 50 490 52 490 249 491 241 491 247 491 250 492 248 492 52 492 251 493 231 493 241 493 251 494 241 494 249 494 47 495 52 495 58 495 47 496 250 496 52 496 46 497 58 497 231 497 46 498 231 498 251 498 46 499 47 499 58 499</p>
        </triangles>
      </mesh>
    </geometry>
  </library_geometries>
  <library_materials>
    <material id="mat_Body004_shape" name="Body004_shape">
      <instance_effect url="#effect_Body004_shape"/>
    </material>
  </library_materials>
  <library_visual_scenes>
    <visual_scene id="myscene">
      <node id="node0" name="node0">
        <instance_geometry url="#geometry0">
          <bind_material>
            <technique_common>
              <instance_material symbol="ref_Body004_shape" target="#mat_Body004_shape"/>
            </technique_common>
          </bind_material>
        </instance_geometry>
      </node>
    </visual_scene>
  </library_visual_scenes>
  <scene>
    <instance_visual_scene url="#myscene"/>
  </scene>
</COLLADA>
